PathFileType	4	(X/Y/Z)	C:/Users/beibeiliu/ov580/test_trc/capture2\sequence.37_training_dense_left.trc
DataRate	CameraRate	NumFrames	NumMarkers	Units	OrigDataRate	OrigDataStartFrame	OrigNumFrames
120	120	16	19	mm	120	139	370
Frame#	Time	ThumbCMC			ThumbMCP			ThumbIP			ThumbTip			IndexMCP			IndexPIP			IndexTip			MiddleMCP			MiddlePIP			MiddleTip			RingMCP			RingPIP			RingTip			PinkyMCP			PinkyPIP			PinkyTip			BackHand1			BackHand2			BackHand3	
		X0	Y0	Z0	X1	Y1	Z1	X2	Y2	Z2	X3	Y3	Z3	X4	Y4	Z4	X5	Y5	Z5	X6	Y6	Z6	X7	Y7	Z7	X8	Y8	Z8	X9	Y9	Z9	X10	Y10	Z10	X11	Y11	Z11	X12	Y12	Z12	X13	Y13	Z13	X14	Y14	Z14	X15	Y15	Z15	X16	Y16	Z16	X17	Y17	Z17	X18	Y18	Z18	
138	1.15	-156.577	65.6184	0.313665	-146.019	77.4603	-25.1175	-140.303	75.596	-57.6061	-131.741	54.8089	-71.3293	-156.247	44.1455	-75.6859	-126.254	41.251	-88.9342	-104.917	50.5117	-64.1213	-150.427	23.4559	-78.2825	-118.347	27.4088	-84.7329	-100.889	34.8779	-54.7174	-147.177	6.06707	-67.9798	-115.466	10.9681	-75.1031	-101.53	21.7378	-46.3185	-140.451	-4.15467	-58.1483	-111.077	-1.0256	-62.3888	-96.1663	15.7444	-45.2629	-176.48	6.65567	-23.9058	-178.099	12.8864	11.1048	-180.675	42.6915	-13.3008	
139	1.15833	-157.049	68.6641	-2.27529	-146.587	78.3809	-27.9579	-140.476	73.4025	-54.9833	-133.426	55.2727	-67.2983	-156.037	46.35	-76.3712	-126.481	43.6584	-89.8915	-105.447	45.2716	-67.7424	-149.754	21.58	-79.0633	-121.728	24.6812	-86.6092	-100.765	34.388	-57.1535	-145.059	5.239	-69.3528	-112.893	9.21751	-73.232	-102.758	25.2279	-46.0503	-143.839	-7.81113	-53.7337	-114.473	-4.35904	-63.0383	-96.6188	14.1894	-41.6195	-175.881	9.81691	-18.7747	-179.539	11.3644	6.20691	-179.974	40.384	-9.35003	
140	1.16667	-157.572	66.6738	-1.80747	-146.615	79.6238	-25.1927	-140.824	76.6619	-53.9433	-132.607	55.6007	-72.0338	-155.57	42.292	-74.8925	-126.535	39.4847	-89.3308	-104.399	42.4078	-67.2851	-151.934	24.8381	-75.2027	-121	22.731	-85.7223	-100.885	33.5394	-54.5052	-147.285	6.42733	-69.2332	-113.808	10.9521	-74.183	-103.23	25.1015	-47.3236	-143.026	-8.37445	-55.3379	-115.221	-4.70536	-63.416	-98.4389	13.4431	-48.1055	-175.775	9.8794	-19.6637	-179.135	13.9747	11.8232	-181.876	44.206	-12.4348	
141	1.175	-157.496	68.3658	-0.263282	-146.691	76.9099	-24.7472	-141.995	81.373	-52.6829	-134.581	63.1232	-69.7986	-157.103	45.282	-72.854	-132.049	40.0485	-90.0993	-103.708	45.7987	-68.5113	-153.671	22.0931	-74.6358	-119.262	26.2317	-85.7356	-100.168	32.9761	-58.0028	-146.554	1.99993	-70.1773	-116.898	5.5525	-74.4559	-101.951	18.6765	-49.3946	-142.68	-11.0915	-57.7558	-117.182	-7.54002	-64.6655	-94.044	14.1126	-48.1448	-175.577	8.62639	-22.7937	-180.409	11.3522	7.89667	-179.549	40.523	-9.75506	
142	1.18333	-156.942	69.4576	2.12427	-145.937	77.3459	-23.8195	-140.865	82.003	-51.329	-134.22	68.4985	-72.337	-159.024	43.7439	-72.4529	-131.483	37.2085	-89.361	-105.832	40.8127	-71.1462	-152.834	24.1541	-76.2494	-122.709	21.3668	-86.1646	-101.125	29.2552	-54.9323	-149.666	4.76332	-67.719	-118.362	4.42782	-75.1266	-103.558	24.5679	-49.0176	-142.971	-12.8511	-56.6042	-118.267	-5.63716	-65.2863	-93.033	9.05256	-50.5492	-176.655	9.13857	-19.9122	-180.705	8.96313	8.90898	-181.036	38.9715	-7.81293	
143	1.19167	-157.438	67.6453	-0.00823377	-144.333	74.4228	-23.9847	-140.001	83.0327	-49.2646	-134.459	76.5372	-73.261	-158.308	43.1203	-72.3899	-133.106	37.9543	-90.2918	-105.749	42.3547	-71.6537	-152.688	19.5963	-76.7726	-121.35	20.4074	-84.6569	-101.325	32.3765	-56.2969	-150.157	2.47774	-66.5945	-116.081	4.82025	-74.2564	-101.846	19.3537	-52.3098	-145.287	-13.4477	-51.7628	-118.453	-6.81062	-64.9881	-93.0903	10.7756	-49.1512	-178.349	9.68376	-21.3631	-179.822	8.634	10.6928	-179.638	38.045	-7.6788	
144	1.2	-156.239	66.428	0.481683	-144.692	77.1719	-25.358	-139.764	84.1365	-50.104	-134.958	85.8882	-75.1569	-159.265	42.3288	-72.2197	-132.049	41.0676	-90.2422	-104.079	45.5859	-70.6833	-154.253	20.1998	-74.759	-124.443	20.6358	-86.0015	-101.874	33.7872	-56.8049	-147.008	3.42219	-70.2694	-120.116	4.5065	-75.9133	-100.817	20.2738	-47.7758	-144.966	-9.64133	-52.1321	-115.974	-7.05316	-63.4543	-94.6394	7.09881	-52.2101	-177.533	9.29452	-20.0076	-180.624	9.70478	11.25	-180.115	39.8885	-10.6764	
145	1.20833	-156.804	67.8156	-3.61445	-143.49	75.5959	-24.8881	-138.662	84.2058	-51.1886	-134.218	88.0291	-72.792	-156.87	41.3758	-75.4603	-132.971	38.8288	-90.4428	-105.653	42.954	-74.2434	-153.533	19.5543	-73.6543	-123.831	19.4914	-84.9772	-100.608	33.7972	-55.405	-149.471	4.5705	-66.2137	-117.511	4.49397	-74.1308	-101.945	21.4354	-47.9717	-142.845	-13.8051	-56.7268	-116.032	-9.46717	-62.8871	-93.5866	7.50203	-49.1088	-175.982	6.22918	-18.5502	-181.138	8.18597	11.2549	-180.34	40.5882	-8.10448	
146	1.21667	-155.91	63.1392	-1.53679	-142.226	72.8057	-24.6398	-137.62	88.4394	-46.3295	-133.3	87.8143	-69.8492	-157.307	39.7173	-73.9389	-134.011	40.8152	-90.8526	-102.428	44.4775	-70.2159	-154.524	22.84	-74.7654	-123.081	20.6951	-84.9832	-101.705	31.8531	-57.6736	-147.334	3.57962	-69.6101	-114.394	6.8576	-73.7763	-100.702	18.9651	-50.5743	-142.574	-12.369	-54.6553	-117.36	-6.26774	-64.4005	-94.4139	12.2861	-49.6693	-175.754	7.43829	-18.234	-180.761	9.06619	9.67217	-182.752	37.8529	-8.16041	
147	1.225	-155.384	64.4151	-3.22641	-141.564	76.6802	-23.7353	-137.48	82.6028	-48.3527	-132.982	92.2356	-70.4492	-158.138	43.2125	-73.7175	-132.122	39.4866	-90.298	-104.352	43.0812	-72.894	-151.917	19.3148	-75.0693	-123.414	21.2575	-85.6591	-101.615	31.3748	-58.4945	-147.145	1.41514	-66.925	-116.046	8.10811	-73.9092	-100.27	20.7441	-45.8244	-142.776	-13.96	-55.7559	-114.357	-3.86085	-63.3862	-94.0208	12.7926	-46.0268	-175.568	4.64007	-21.1901	-179.79	11.7375	13.1723	-180.112	42.1985	-7.93877	
148	1.23333	-155.998	66.7788	-0.511956	-142.089	75.2393	-25.6278	-137.477	83.7367	-47.9621	-131.745	92.7079	-69.8564	-158.058	41.0746	-71.7331	-131.67	36.7467	-88.903	-103.228	40.7379	-68.4867	-153.184	23.2385	-74.7237	-121.689	23.198	-84.5963	-101.39	30.0726	-53.9996	-145.527	0.906366	-67.7406	-116.009	7.66066	-73.3526	-102.578	25.1739	-46.402	-142.834	-11.2613	-54.9643	-114.576	-2.84298	-63.4627	-94.836	13.8337	-43.6919	-175.441	5.77935	-21.312	-180.87	13.7494	13.5634	-180.922	40.2638	-9.0644	
149	1.24167	-155.916	63.9896	-0.677217	-140.944	77.4118	-22.0336	-136.954	86.0895	-50.4668	-132.684	89.6638	-73.3537	-155.834	40.5126	-75.2525	-132.071	36.3101	-87.9979	-104.158	45.4476	-66.0717	-153.665	23.8788	-72.8539	-122.386	21.3961	-84.6522	-101.831	35.0349	-51.3584	-146.635	5.55272	-68.0644	-114.732	8.33955	-71.8898	-101.358	20.71	-46.158	-143.518	-10.1967	-52.775	-115.748	-6.75125	-62.0122	-96.5843	12.6587	-41.9524	-176.479	4.46394	-20.0791	-178.988	8.8537	12.6653	-181.904	42.3053	-8.26169	
150	1.25	-156.295	63.0993	-3.19055	-140.901	74.75	-26.3127	-136.63	85.5684	-46.3311	-131.929	90.9601	-69.77	-157.385	41.3207	-71.9639	-128.741	42.5675	-88.5959	-105.322	43.1631	-64.6507	-151.134	20.552	-74.6784	-118.694	21.8188	-80.2903	-103.011	32.6788	-53.4362	-145.554	7.43697	-70.1406	-114.53	9.78055	-70.6771	-103.837	23.6291	-43.5649	-142.64	-12.306	-55.2313	-114.085	-2.98848	-60.539	-94.9582	15.0479	-40.396	-176.734	7.56182	-16.8726	-178.48	10.8675	11.5765	-182.745	41.4576	-7.99159	
151	1.25833	-155.681	67.8295	-3.81964	-141.215	71.4654	-25.2776	-136.523	85.7538	-50.6679	-131.771	86.3526	-71.758	-157.246	43.2816	-71.608	-128.831	42.1786	-86.9791	-105.924	44.8323	-61.0155	-151.942	21.6197	-72.0968	-119.047	22.8528	-81.228	-103.908	34.1403	-48.1943	-144.162	5.3053	-70.1637	-114.293	11.0882	-69.3516	-103.666	22.6877	-43.2165	-142.179	-7.82548	-56.3661	-113.636	-3.58369	-60.0834	-96.455	11.9259	-40.8108	-178.209	4.76192	-20.9362	-179.63	9.24467	10.7919	-180.918	37.8791	-11.3213	
152	1.26667	-154.823	66.9155	-3.51538	-139.551	74.3762	-21.5851	-135.722	86.0798	-46.9462	-131.702	88.8899	-69.592	-154.137	46.3504	-74.1921	-125.557	46.5644	-85.5371	-105.726	46.4652	-60.4163	-150.681	23.161	-74.4063	-118.788	26.3315	-80.9636	-104.733	32.7979	-47.5204	-146.241	7.62817	-67.83	-115.269	10.1001	-69.7358	-105.98	23.9178	-37.3984	-142.035	-11.0177	-55.8663	-114.91	0.255727	-60.0758	-99.2837	15.1076	-38.701	-177.261	7.59063	-18.209	-181.327	14.214	10.5021	-180.897	40.1	-8.50817	
153	1.275	-154.392	65.0872	-3.15291	-140.17	77.3079	-24.2725	-136.462	82.2059	-49.4774	-131.585	87.8101	-69.4112	-154.716	43.3594	-71.6286	-122.036	46.3509	-83.7797	-107.243	45.8828	-53.48	-148.98	26.529	-77.599	-117.74	25.1119	-79.0947	-106.946	36.2366	-45.4188	-146.097	4.20167	-66.8299	-112.312	11.5799	-67.9613	-105.83	24.666	-40.7452	-142.585	-6.21225	-55.6609	-112.178	-0.376028	-57.8176	-99.0107	14.2643	-36.8714	-176.746	5.80315	-22.4004	-180.539	12.0456	12.1751	-181.604	40.7146	-7.67487	
